<svg width="410" height="136" viewBox="0 0 410 136" fill="none" xmlns="http://www.w3.org/2000/svg">
<path d="M108 16V47.4619C108.115 52.9482 110.378 58.171 114.304 62.0104C118.23 65.8498 123.505 68 129 68C134.495 68 139.77 65.8498 143.696 62.0104C147.622 58.171 149.885 52.9482 150 47.4619V16H108ZM129.078 62.9856C127.009 62.9892 124.958 62.5855 123.045 61.7975C121.131 61.0095 119.392 59.8526 117.926 58.393C116.46 56.9334 115.297 55.1997 114.502 53.2909C113.708 51.3821 113.297 49.3356 113.295 47.2684V36.7842H129.078V62.9856ZM144.853 36.7658H129.078V21.0579H144.816L144.853 36.7658Z" fill="#333333"/>
<path d="M1.32528 68V20.5455H17.5142V29.5668H18.0085C18.9972 26.6009 20.6861 24.2528 23.0753 22.5227C25.4645 20.7926 28.3068 19.9276 31.6023 19.9276C34.9389 19.9276 37.8121 20.8132 40.2219 22.5845C42.6317 24.3352 44.0838 26.6626 44.5781 29.5668H45.0724C45.8757 26.6626 47.5852 24.3352 50.201 22.5845C52.8168 20.8132 55.8857 19.9276 59.4077 19.9276C63.9595 19.9276 67.6463 21.3899 70.468 24.3146C73.3104 27.2393 74.7315 31.1321 74.7315 35.9929V68H57.6776V40.3182C57.6776 38.2379 57.1523 36.6108 56.1019 35.4368C55.0515 34.2422 53.6406 33.6449 51.8693 33.6449C50.1186 33.6449 48.7283 34.2422 47.6985 35.4368C46.6893 36.6108 46.1847 38.2379 46.1847 40.3182V68H29.8722V40.3182C29.8722 38.2379 29.3469 36.6108 28.2965 35.4368C27.2461 34.2422 25.8352 33.6449 24.0639 33.6449C22.8899 33.6449 21.8807 33.9126 21.0362 34.4482C20.1918 34.9837 19.5327 35.756 19.059 36.7653C18.6058 37.7539 18.3793 38.9382 18.3793 40.3182V68H1.32528Z" fill="#333333"/>
<path d="M77.9227 68V20.5455H94.9766V68H77.9227ZM86.4497 15.6023C84.1428 15.6023 82.1656 14.8402 80.5178 13.3161C78.8701 11.7919 78.0462 9.95881 78.0462 7.81676C78.0462 5.67472 78.8701 3.84162 80.5178 2.31747C82.1656 0.793323 84.1428 0.03125 86.4497 0.03125C88.7771 0.03125 90.7543 0.793323 92.3815 2.31747C94.0292 3.84162 94.8531 5.67472 94.8531 7.81676C94.8531 9.95881 94.0292 11.7919 92.3815 13.3161C90.7543 14.8402 88.7771 15.6023 86.4497 15.6023Z" fill="#333333"/>
<path d="M0.078125 135V71.7273H27.3892C32.0852 71.7273 36.1942 72.582 39.7163 74.2915C43.2383 76.0011 45.9776 78.4624 47.9343 81.6754C49.891 84.8885 50.8693 88.7401 50.8693 93.2301C50.8693 97.7614 49.8601 101.582 47.8416 104.692C45.8438 107.802 43.0323 110.15 39.4073 111.736C35.8029 113.322 31.5909 114.115 26.7713 114.115H10.4588V100.768H23.3111C25.3295 100.768 27.0494 100.521 28.4705 100.027C29.9123 99.5121 31.0142 98.6985 31.7763 97.5863C32.559 96.4741 32.9503 95.022 32.9503 93.2301C32.9503 91.4176 32.559 89.945 31.7763 88.8121C31.0142 87.6587 29.9123 86.8143 28.4705 86.2788C27.0494 85.7227 25.3295 85.4446 23.3111 85.4446H17.2557V135H0.078125ZM37.152 105.959L52.9702 135H34.3097L18.8622 105.959H37.152Z" fill="#333333"/>
<path d="M52.9714 135V71.7273H98.5723V85.5682H70.149V96.4432H96.2243V110.284H70.149V121.159H98.4487V135H52.9714Z" fill="#333333"/>
<path d="M160.943 95.4545H143.518C143.394 94.0128 143.065 92.7049 142.529 91.5309C142.014 90.3569 141.293 89.3477 140.367 88.5032C139.46 87.6381 138.358 86.979 137.061 86.5259C135.763 86.0522 134.291 85.8153 132.643 85.8153C129.759 85.8153 127.319 86.5156 125.321 87.9162C123.343 89.3168 121.84 91.3249 120.81 93.9407C119.801 96.5565 119.296 99.6974 119.296 103.364C119.296 107.236 119.811 110.48 120.841 113.096C121.891 115.691 123.405 117.647 125.383 118.966C127.36 120.263 129.739 120.912 132.519 120.912C134.105 120.912 135.526 120.716 136.783 120.325C138.039 119.913 139.131 119.326 140.058 118.564C140.984 117.802 141.736 116.885 142.313 115.814C142.91 114.723 143.312 113.497 143.518 112.138L160.943 112.261C160.737 114.939 159.985 117.668 158.687 120.449C157.39 123.208 155.546 125.762 153.157 128.11C150.788 130.438 147.853 132.312 144.352 133.733C140.851 135.154 136.783 135.865 132.149 135.865C126.34 135.865 121.129 134.619 116.516 132.127C111.923 129.635 108.287 125.968 105.61 121.128C102.953 116.288 101.624 110.366 101.624 103.364C101.624 96.3196 102.984 90.3878 105.702 85.5682C108.421 80.728 112.087 77.0721 116.701 74.6005C121.315 72.1083 126.464 70.8622 132.149 70.8622C136.144 70.8622 139.821 71.408 143.178 72.4996C146.535 73.5913 149.481 75.1875 152.014 77.2883C154.547 79.3686 156.586 81.9329 158.131 84.9812C159.676 88.0295 160.613 91.5206 160.943 95.4545Z" fill="#333333"/>
<path d="M163.516 135V71.7273H180.693V121.159H206.274V135H163.516Z" fill="#333333"/>
<path d="M224.434 135H205.897L226.782 71.7273H250.262L271.147 135H252.61L238.769 89.152H238.275L224.434 135ZM220.974 110.037H255.823V122.889H220.974V110.037Z" fill="#333333"/>
<path d="M272.021 71.7273H293.4L308.106 107.565H308.848L323.554 71.7273H344.933V135H328.126V98.4205H327.632L313.544 134.506H303.41L289.322 98.1733H288.828V135H272.021V71.7273Z" fill="#333333"/>
<path d="M409.149 103.364C409.149 110.408 407.78 116.35 405.04 121.19C402.301 126.01 398.604 129.665 393.949 132.158C389.294 134.629 384.104 135.865 378.378 135.865C372.611 135.865 367.4 134.619 362.745 132.127C358.111 129.614 354.424 125.948 351.685 121.128C348.966 116.288 347.607 110.366 347.607 103.364C347.607 96.3196 348.966 90.3878 351.685 85.5682C354.424 80.728 358.111 77.0721 362.745 74.6005C367.4 72.1083 372.611 70.8622 378.378 70.8622C384.104 70.8622 389.294 72.1083 393.949 74.6005C398.604 77.0721 402.301 80.728 405.04 85.5682C407.78 90.3878 409.149 96.3196 409.149 103.364ZM391.477 103.364C391.477 99.5739 390.973 96.3814 389.964 93.7862C388.975 91.1705 387.502 89.1932 385.546 87.8544C383.61 86.495 381.22 85.8153 378.378 85.8153C375.536 85.8153 373.136 86.495 371.179 87.8544C369.243 89.1932 367.771 91.1705 366.762 93.7862C365.773 96.3814 365.279 99.5739 365.279 103.364C365.279 107.153 365.773 110.356 366.762 112.972C367.771 115.567 369.243 117.544 371.179 118.904C373.136 120.243 375.536 120.912 378.378 120.912C381.22 120.912 383.61 120.243 385.546 118.904C387.502 117.544 388.975 115.567 389.964 112.972C390.973 110.356 391.477 107.153 391.477 103.364Z" fill="#333333"/>
</svg>
