<svg width="119" height="102" viewBox="0 0 119 102" fill="none" xmlns="http://www.w3.org/2000/svg">
<path d="M81.6589 13.327V36.2234C81.7452 40.2161 83.4403 44.017 86.3809 46.8111C89.3215 49.6052 93.2734 51.1701 97.3891 51.1701C101.505 51.1701 105.457 49.6052 108.397 46.8111C111.338 44.017 113.033 40.2161 113.119 36.2234V13.327H81.6589ZM97.4479 47.5208C95.8974 47.5234 94.3616 47.2296 92.9283 46.6562C91.4949 46.0827 90.192 45.2408 89.0941 44.1786C87.9962 43.1163 87.1247 41.8546 86.5295 40.4655C85.9343 39.0764 85.627 37.587 85.6252 36.0826V28.4527H97.4479V47.5208ZM109.264 28.4393H97.4479V17.0078H109.236L109.264 28.4393Z" fill="#333333"/>
<path d="M0.367081 51.1701V15.4441H12.9117V22.2357H13.2947C14.0608 20.0028 15.3695 18.2351 17.2209 16.9326C19.0722 15.6301 21.2747 14.9789 23.8283 14.9789C26.4138 14.9789 28.6403 15.6456 30.5076 16.9792C32.3749 18.2972 33.5001 20.0494 33.8831 22.2357H34.2662C34.8886 20.0494 36.2133 18.2972 38.2402 16.9792C40.2671 15.6456 42.6452 14.9789 45.3743 14.9789C48.9015 14.9789 51.7584 16.0798 53.9449 18.2817C56.1474 20.4835 57.2486 23.4142 57.2486 27.0736V51.1701H44.0337V30.3299C44.0337 28.7638 43.6267 27.5388 42.8128 26.6549C41.9988 25.7556 40.9055 25.3059 39.533 25.3059C38.1764 25.3059 37.0991 25.7556 36.3011 26.6549C35.519 27.5388 35.128 28.7638 35.128 30.3299V51.1701H22.4877V30.3299C22.4877 28.7638 22.0807 27.5388 21.2667 26.6549C20.4528 25.7556 19.3595 25.3059 17.9869 25.3059C17.0772 25.3059 16.2952 25.5075 15.6408 25.9107C14.9865 26.3138 14.4757 26.8953 14.1087 27.6551C13.7575 28.3994 13.582 29.291 13.582 30.3299V51.1701H0.367081Z" fill="#333333"/>
<path d="M60.3955 51.1701V15.4441H73.6104V51.1701H60.3955ZM67.003 11.7226C65.2155 11.7226 63.6833 11.1489 62.4065 10.0014C61.1297 8.85397 60.4913 7.47393 60.4913 5.8613C60.4913 4.24866 61.1297 2.86862 62.4065 1.72117C63.6833 0.573724 65.2155 0 67.003 0C68.8065 0 70.3386 0.573724 71.5995 1.72117C72.8763 2.86862 73.5147 4.24866 73.5147 5.8613C73.5147 7.47393 72.8763 8.85397 71.5995 10.0014C70.3386 11.1489 68.8065 11.7226 67.003 11.7226Z" fill="#333333"/>
<path d="M0 101.385V56.3966H19.9873C23.424 56.3966 26.4311 57.0044 29.0087 58.2199C31.5862 59.4354 33.591 61.1854 35.0229 63.47C36.4549 65.7545 37.1709 68.4931 37.1709 71.6856C37.1709 74.9074 36.4323 77.624 34.9551 79.8354C33.493 82.0467 31.4355 83.7162 28.7826 84.8438C26.1447 85.9715 23.0622 86.5353 19.5351 86.5353H7.59697V77.0456H17.0027C18.4799 77.0456 19.7386 76.8698 20.7786 76.5183C21.8338 76.1522 22.6402 75.5738 23.1979 74.783C23.7707 73.9922 24.0571 72.9597 24.0571 71.6856C24.0571 70.3969 23.7707 69.3498 23.1979 68.5443C22.6402 67.7243 21.8338 67.1238 20.7786 66.7431C19.7386 66.3477 18.4799 66.1499 17.0027 66.1499H12.5712V101.385H0ZM27.132 80.736L38.7084 101.385H25.0519L13.7469 80.736H27.132Z" fill="#333333"/>
<path d="M39.346 101.385V56.3966H72.7184V66.2378H51.9172V73.9702H71V83.8114H51.9172V91.5437H72.628V101.385H39.346Z" fill="#333333"/>
<path d="M119 73.2672H106.248C106.158 72.2421 105.916 71.3122 105.524 70.4774C105.148 69.6427 104.62 68.9251 103.942 68.3247C103.278 67.7096 102.472 67.241 101.522 66.9188C100.573 66.582 99.4951 66.4136 98.2892 66.4136C96.1789 66.4136 94.3927 66.9115 92.9306 67.9073C91.4836 68.9031 90.3832 70.331 89.6296 72.1909C88.891 74.0507 88.5217 76.284 88.5217 78.8908C88.5217 81.644 88.8985 83.9505 89.6522 85.8104C90.4209 87.6556 91.5288 89.0468 92.9759 89.9841C94.4229 90.9067 96.1639 91.368 98.1988 91.368C99.3594 91.368 100.399 91.2289 101.319 90.9506C102.238 90.6577 103.037 90.2404 103.716 89.6985C104.394 89.1567 104.944 88.505 105.366 87.7435C105.803 86.9673 106.097 86.0959 106.248 85.1294L119 85.2173C118.849 87.1211 118.299 89.0615 117.349 91.0385C116.4 93.0009 115.051 94.8168 113.302 96.4863C111.569 98.1411 109.421 99.4738 106.858 100.484C104.296 101.495 101.319 102 97.9274 102C93.6768 102 89.8632 101.114 86.4868 99.342C83.1254 97.57 80.465 94.9633 78.5054 91.5218C76.561 88.0803 75.5887 83.87 75.5887 78.8908C75.5887 73.8823 76.5836 69.6647 78.5733 66.2378C80.5629 62.7963 83.246 60.1969 86.6224 58.4396C89.9989 56.6676 93.7672 55.7816 97.9274 55.7816C100.852 55.7816 103.542 56.1696 105.999 56.9458C108.456 57.722 110.612 58.8569 112.466 60.3507C114.32 61.8298 115.812 63.653 116.942 65.8204C118.073 67.9879 118.759 70.4701 119 73.2672Z" fill="#333333"/>
</svg>
